<?xml version="1.0" encoding="UTF-8" standalone="no"?>
<svg
   xmlns:dc="http://purl.org/dc/elements/1.1/"
   xmlns:cc="http://creativecommons.org/ns#"
   xmlns:rdf="http://www.w3.org/1999/02/22-rdf-syntax-ns#"
   xmlns:svg="http://www.w3.org/2000/svg"
   xmlns="http://www.w3.org/2000/svg"
   version="1.1"
   id="Warstwa_1"
   x="0px"
   y="0px"
   width="340.48599"
   height="64.275002"
   viewBox="0 0 340.486 64.275004"
   enable-background="new 0 0 425.197 170.079"
   xml:space="preserve"><metadata
     id="metadata233"><rdf:RDF><cc:Work
         rdf:about=""><dc:format>image/svg+xml</dc:format><dc:type
           rdf:resource="http://purl.org/dc/dcmitype/StillImage" /><dc:title></dc:title></cc:Work></rdf:RDF></metadata><defs
     id="defs231" /><g
     id="g3"
     transform="translate(-42.356,-52.902)"><g
       id="g5"><g
         id="g7"><polygon
           points="248.025,61.111 248.025,88.475 256.233,88.475 256.233,72.839 267.181,88.475 275.39,88.475 275.39,61.111 267.181,61.111 267.181,76.747 256.233,61.111 "
           id="polygon9"
           style="fill:#ffffff" /><linearGradient
           id="SVGID_1_"
           gradientUnits="userSpaceOnUse"
           x1="239.8154"
           y1="64.824203"
           x2="274.24899"
           y2="64.824203"><stop
             offset="0"
             style="stop-color:#40B5E4"
             id="stop12" /><stop
             offset="0.1135"
             style="stop-color:#41AFE0"
             id="stop14" /><stop
             offset="0.3203"
             style="stop-color:#459DD3"
             id="stop16" /><stop
             offset="0.597"
             style="stop-color:#4B7FBC"
             id="stop18" /><stop
             offset="0.9298"
             style="stop-color:#51519A"
             id="stop20" /><stop
             offset="1"
             style="stop-color:#524794"
             id="stop22" /></linearGradient><path
           d="m 274.249,61.111 c -2.063,-4.723 -6.715,-8.056 -12.161,-8.205 -0.128,-10e-4 -0.253,-0.004 -0.381,-0.004 -12.09,0 -21.892,9.801 -21.892,21.891 0,-7.55 6.117,-13.673 13.666,-13.682 l 2.752,0 10.947,15.636 0,-15.636 3.891,0 0,0 3.178,0 z"
           id="path24"
           style="fill:url(#SVGID_1_)" /><linearGradient
           id="SVGID_2_"
           gradientUnits="userSpaceOnUse"
           x1="272.6528"
           y1="87.334503"
           x2="272.6528"
           y2="52.901901"><stop
             offset="0"
             style="stop-color:#A8143E"
             id="stop27" /><stop
             offset="0.0307"
             style="stop-color:#AC123E"
             id="stop29" /><stop
             offset="0.2677"
             style="stop-color:#C1083F"
             id="stop31" /><stop
             offset="0.5077"
             style="stop-color:#D0003F"
             id="stop33" /><stop
             offset="0.7504"
             style="stop-color:#D90040"
             id="stop35" /><stop
             offset="1"
             style="stop-color:#DC0040"
             id="stop37" /></linearGradient><path
           d="m 283.593,75.173 c 0.002,-0.127 0.006,-0.253 0.006,-0.38 0,-12.09 -9.801,-21.891 -21.892,-21.891 7.557,0 13.683,6.125 13.683,13.682 l 0,20.75 c 4.721,-2.062 8.054,-6.714 8.203,-12.161 z"
           id="path39"
           style="fill:url(#SVGID_2_)" /><linearGradient
           id="SVGID_3_"
           gradientUnits="userSpaceOnUse"
           x1="249.16499"
           y1="84.761703"
           x2="283.5986"
           y2="84.761703"><stop
             offset="0"
             style="stop-color:#59A827"
             id="stop42" /><stop
             offset="0.0914"
             style="stop-color:#6CAD23"
             id="stop44" /><stop
             offset="0.3358"
             style="stop-color:#91B914"
             id="stop46" /><stop
             offset="0.5734"
             style="stop-color:#A8C100"
             id="stop48" /><stop
             offset="0.7991"
             style="stop-color:#B5C600"
             id="stop50" /><stop
             offset="1"
             style="stop-color:#B9C800"
             id="stop52" /></linearGradient><path
           d="m 269.917,88.475 -2.736,0 -10.947,-15.636 0,15.636 -7.068,0 c 2.063,4.723 6.715,8.056 12.162,8.205 0.127,10e-4 0.253,0.004 0.38,0.004 12.091,0 21.892,-9.801 21.892,-21.891 -0.001,7.556 -6.128,13.682 -13.683,13.682 z"
           id="path54"
           style="fill:url(#SVGID_3_)" /><linearGradient
           id="SVGID_4_"
           gradientUnits="userSpaceOnUse"
           x1="250.7612"
           y1="96.684097"
           x2="250.7612"
           y2="62.2495"><stop
             offset="0"
             style="stop-color:#FECE00"
             id="stop57" /><stop
             offset="0.1593"
             style="stop-color:#FDCB00"
             id="stop59" /><stop
             offset="0.3382"
             style="stop-color:#FBC100"
             id="stop61" /><stop
             offset="0.5266"
             style="stop-color:#F7B200"
             id="stop63" /><stop
             offset="0.7217"
             style="stop-color:#F29A00"
             id="stop65" /><stop
             offset="0.92"
             style="stop-color:#EC7902"
             id="stop67" /><stop
             offset="1"
             style="stop-color:#EA690B"
             id="stop69" /></linearGradient><path
           d="m 239.821,74.413 c -0.002,0.126 -0.006,0.253 -0.006,0.38 0,12.09 9.802,21.891 21.892,21.891 -7.556,0 -13.682,-6.125 -13.682,-13.682 l 0,-20.752 c -4.723,2.064 -8.055,6.716 -8.204,12.163 z"
           id="path71"
           style="fill:url(#SVGID_4_)" /></g><g
         id="g73"><polygon
           points="302.862,61.111 297.644,61.111 297.644,88.475 302.862,88.475 305.853,88.475 325.007,88.475 325.007,81.853 305.853,81.853 305.853,78.104 325.007,78.104 325.007,71.482 305.853,71.482 305.853,67.732 325.007,67.732 325.007,61.111 305.853,61.111 "
           id="polygon75"
           style="fill:#ffffff" /><linearGradient
           id="SVGID_5_"
           gradientUnits="userSpaceOnUse"
           x1="289.43359"
           y1="63.847698"
           x2="323.86819"
           y2="63.847698"><stop
             offset="0"
             style="stop-color:#DC0040"
             id="stop78" /><stop
             offset="0.2496"
             style="stop-color:#D90040"
             id="stop80" /><stop
             offset="0.4923"
             style="stop-color:#D0003F"
             id="stop82" /><stop
             offset="0.7323"
             style="stop-color:#C1083F"
             id="stop84" /><stop
             offset="0.9693"
             style="stop-color:#AC123E"
             id="stop86" /><stop
             offset="1"
             style="stop-color:#A8143E"
             id="stop88" /></linearGradient><path
           d="m 311.706,52.906 c -0.127,-10e-4 -0.254,-0.004 -0.381,-0.004 -12.09,0 -21.892,9.801 -21.892,21.891 0,-7.556 6.126,-13.682 13.683,-13.682 l 20.752,0 c -2.064,-4.723 -6.716,-8.056 -12.162,-8.205 z"
           id="path90"
           style="fill:url(#SVGID_5_)" /><linearGradient
           id="SVGID_6_"
           gradientUnits="userSpaceOnUse"
           x1="300.37939"
           y1="96.684097"
           x2="300.37939"
           y2="62.2495"><stop
             offset="0"
             style="stop-color:#40B5E4"
             id="stop93" /><stop
             offset="0.1135"
             style="stop-color:#41AFE0"
             id="stop95" /><stop
             offset="0.3203"
             style="stop-color:#459DD3"
             id="stop97" /><stop
             offset="0.597"
             style="stop-color:#4B7FBC"
             id="stop99" /><stop
             offset="0.9298"
             style="stop-color:#51519A"
             id="stop101" /><stop
             offset="1"
             style="stop-color:#524794"
             id="stop103" /></linearGradient><path
           d="m 289.44,74.413 c -0.003,0.126 -0.007,0.253 -0.007,0.38 0,12.09 9.802,21.891 21.892,21.891 -7.557,0 -13.682,-6.125 -13.682,-13.682 l 0,-20.752 c -4.722,2.064 -8.056,6.716 -8.203,12.163 z"
           id="path105"
           style="fill:url(#SVGID_6_)" /><linearGradient
           id="SVGID_7_"
           gradientUnits="userSpaceOnUse"
           x1="298.7822"
           y1="85.738297"
           x2="333.21579"
           y2="85.738297"><stop
             offset="0"
             style="stop-color:#EA690B"
             id="stop108" /><stop
             offset="0.08"
             style="stop-color:#EC7902"
             id="stop110" /><stop
             offset="0.2783"
             style="stop-color:#F29A00"
             id="stop112" /><stop
             offset="0.4734"
             style="stop-color:#F7B200"
             id="stop114" /><stop
             offset="0.6618"
             style="stop-color:#FBC100"
             id="stop116" /><stop
             offset="0.8407"
             style="stop-color:#FDCB00"
             id="stop118" /><stop
             offset="1"
             style="stop-color:#FECE00"
             id="stop120" /></linearGradient><path
           d="m 310.944,96.68 c 0.127,10e-4 0.254,0.004 0.381,0.004 12.09,0 21.891,-9.801 21.891,-21.891 0,7.556 -6.125,13.682 -13.682,13.682 l -20.752,0 c 2.065,4.723 6.716,8.056 12.162,8.205 z"
           id="path122"
           style="fill:url(#SVGID_7_)" /><linearGradient
           id="SVGID_8_"
           gradientUnits="userSpaceOnUse"
           x1="319.53421"
           y1="87.334503"
           x2="319.53421"
           y2="52.901901"><stop
             offset="0"
             style="stop-color:#59A827"
             id="stop125" /><stop
             offset="0.0914"
             style="stop-color:#6CAD23"
             id="stop127" /><stop
             offset="0.3358"
             style="stop-color:#91B914"
             id="stop129" /><stop
             offset="0.5734"
             style="stop-color:#A8C100"
             id="stop131" /><stop
             offset="0.7991"
             style="stop-color:#B5C600"
             id="stop133" /><stop
             offset="1"
             style="stop-color:#B9C800"
             id="stop135" /></linearGradient><path
           d="m 311.325,52.902 c 7.553,0 13.676,6.119 13.682,13.67 l 0,1.16 -19.154,0 0,3.75 19.154,0 0,6.621 -19.154,0 0,3.749 19.154,0 0,2.276 0,0 0,3.206 c 4.723,-2.063 8.056,-6.714 8.204,-12.161 0.003,-0.127 0.005,-0.253 0.005,-0.38 0,-12.09 -9.801,-21.891 -21.891,-21.891 z"
           id="path137"
           style="fill:url(#SVGID_8_)" /></g><g
         id="g139"><polygon
           points="347.267,61.111 347.267,67.732 356.843,67.732 356.843,88.475 365.054,88.475 365.054,67.732 374.631,67.732 374.631,61.111 365.054,61.111 356.843,61.111 "
           id="polygon141"
           style="fill:#ffffff" /><linearGradient
           id="SVGID_9_"
           gradientUnits="userSpaceOnUse"
           x1="339.05759"
           y1="63.847698"
           x2="373.49121"
           y2="63.847698"><stop
             offset="0"
             style="stop-color:#B9C800"
             id="stop144" /><stop
             offset="0.2009"
             style="stop-color:#B5C600"
             id="stop146" /><stop
             offset="0.4266"
             style="stop-color:#A8C100"
             id="stop148" /><stop
             offset="0.6642"
             style="stop-color:#91B914"
             id="stop150" /><stop
             offset="0.9086"
             style="stop-color:#6CAD23"
             id="stop152" /><stop
             offset="1"
             style="stop-color:#59A827"
             id="stop154" /></linearGradient><path
           d="m 361.329,52.906 c -0.127,-10e-4 -0.254,-0.004 -0.38,-0.004 -12.091,0 -21.892,9.801 -21.892,21.891 0,-7.556 6.126,-13.682 13.683,-13.682 l 20.751,0 c -2.062,-4.723 -6.715,-8.056 -12.162,-8.205 z"
           id="path156"
           style="fill:url(#SVGID_9_)" /><linearGradient
           id="SVGID_10_"
           gradientUnits="userSpaceOnUse"
           x1="347.16019"
           y1="83.603996"
           x2="383.27109"
           y2="77.236702"><stop
             offset="0"
             style="stop-color:#524794"
             id="stop159" /><stop
             offset="0.0536"
             style="stop-color:#51569E"
             id="stop161" /><stop
             offset="0.163"
             style="stop-color:#4D71B2"
             id="stop163" /><stop
             offset="0.2781"
             style="stop-color:#4988C3"
             id="stop165" /><stop
             offset="0.3977"
             style="stop-color:#4599CF"
             id="stop167" /><stop
             offset="0.5234"
             style="stop-color:#43A6D9"
             id="stop169" /><stop
             offset="0.6577"
             style="stop-color:#41AFDF"
             id="stop171" /><stop
             offset="0.8068"
             style="stop-color:#40B4E3"
             id="stop173" /><stop
             offset="1"
             style="stop-color:#40B5E4"
             id="stop175" /></linearGradient><path
           d="m 369.157,88.475 -12.314,0 0,-20.743 -9.576,0 0,15.27 c 0,1.947 0.408,3.797 1.141,5.473 l -0.001,0 c 0.001,0.004 0.004,0.006 0.005,0.011 0.057,0.127 0.113,0.253 0.172,0.378 l 0.002,0 c 2.145,4.516 6.688,7.67 11.984,7.816 0.127,10e-4 0.252,0.004 0.38,0.004 12.091,0 21.892,-9.801 21.892,-21.891 -10e-4,7.556 -6.128,13.682 -13.685,13.682 z"
           id="path177"
           style="fill:url(#SVGID_10_)" /><linearGradient
           id="SVGID_11_"
           gradientUnits="userSpaceOnUse"
           x1="371.89499"
           y1="88.475098"
           x2="371.89499"
           y2="52.901901"><stop
             offset="0"
             style="stop-color:#EA690B"
             id="stop180" /><stop
             offset="0.08"
             style="stop-color:#EC7902"
             id="stop182" /><stop
             offset="0.2783"
             style="stop-color:#F29A00"
             id="stop184" /><stop
             offset="0.4734"
             style="stop-color:#F7B200"
             id="stop186" /><stop
             offset="0.6618"
             style="stop-color:#FBC100"
             id="stop188" /><stop
             offset="0.8407"
             style="stop-color:#FDCB00"
             id="stop190" /><stop
             offset="1"
             style="stop-color:#FECE00"
             id="stop192" /></linearGradient><path
           d="m 360.949,52.902 c 7.556,0 13.683,6.125 13.683,13.682 l 0,1.148 -9.578,0 0,20.743 4.104,0 c 2.115,0 4.116,-0.479 5.902,-1.336 0.014,-0.007 0.027,-0.014 0.04,-0.02 0.087,-0.043 0.173,-0.084 0.258,-0.126 l 0,-0.003 c 4.334,-2.208 7.335,-6.654 7.478,-11.817 0.002,-0.127 0.006,-0.253 0.006,-0.38 -10e-4,-12.09 -9.802,-21.891 -21.893,-21.891 z"
           id="path194"
           style="fill:url(#SVGID_11_)" /><g
           id="g196"><g
             id="g198"><linearGradient
               id="SVGID_12_"
               gradientUnits="userSpaceOnUse"
               x1="346.3179"
               y1="71.2407"
               x2="355.07401"
               y2="86.782898"><stop
                 offset="0"
                 style="stop-color:#A8143E"
                 id="stop201" /><stop
                 offset="0.0637"
                 style="stop-color:#AF113E"
                 id="stop203" /><stop
                 offset="0.2773"
                 style="stop-color:#C3073F"
                 id="stop205" /><stop
                 offset="0.4995"
                 style="stop-color:#D1003F"
                 id="stop207" /><stop
                 offset="0.7338"
                 style="stop-color:#DA0040"
                 id="stop209" /><stop
                 offset="1"
                 style="stop-color:#DC0040"
                 id="stop211" /></linearGradient><path
               d="m 347.267,83.002 c 0,-13.374 9.576,-15.27 9.576,-15.27 l -9.576,0 0,-2.06 0,-3.422 c -4.723,2.064 -8.055,6.717 -8.203,12.164 -0.002,0.126 -0.006,0.253 -0.006,0.38 0,12.09 9.801,21.891 21.892,21.891 -7.557,-0.001 -13.683,-6.126 -13.683,-13.683 z"
               id="path213"
               style="fill:url(#SVGID_12_)" /></g></g></g></g><g
       id="g215"><g
         id="g217"><path
           d="m 42.356,54.804 15.551,0 0,49.156 c 1.381,0.346 3.456,0.52 5.873,0.52 l -0.171,11.748 c -2.246,0.434 -4.839,0.779 -8.812,0.779 -8.121,0 -12.441,-1.727 -12.441,-11.751 l 0,-50.452 z"
           id="path219"
           style="fill:#5185c0" /><path
           d="m 76.625,70.871 c -5.443,0 -9.33,-3.454 -9.33,-8.985 0,-5.527 3.887,-8.984 9.33,-8.984 5.617,0 9.331,3.457 9.331,8.984 0,5.531 -3.714,8.985 -9.331,8.985 z m 7.776,33.088 c 1.38,0.346 2.937,0.52 4.838,0.52 l -0.173,11.748 c -2.247,0.52 -5.011,0.779 -9.504,0.779 -7.776,0 -10.711,-2.074 -10.711,-9.158 l 0,-33.174 15.55,0 0,29.285 z"
           id="path221"
           style="fill:#5185c0" /><path
           d="m 140.491,94.889 c 0,13.131 -7.257,22.288 -24.882,22.288 -8.813,0 -14.859,-1.555 -20.042,-4.318 l 0,-58.055 15.549,0 0,22.722 c 2.678,-2.333 6.308,-3.715 11.232,-3.715 10.54,0 18.143,6.737 18.143,21.078 z m -15.725,0.346 c 0,-5.787 -2.765,-8.641 -6.738,-8.641 -4.491,0 -6.912,2.764 -6.912,7.086 l 0,9.332 c 1.038,0.688 2.938,1.38 5.702,1.38 5.357,0 7.948,-3.282 7.948,-9.157 z"
           id="path223"
           style="fill:#5185c0" /><path
           d="m 169.027,73.806 c -4.403,0 -7.773,2.422 -10.019,6.402 -2.158,-3.98 -5.528,-6.402 -10.193,-6.402 -1.104,0 -2.088,0.07 -2.931,0.174 l 0,42.161 15.545,0 0,-17.791 c 0,-8.736 4.142,-10.192 7.089,-10.192 2.246,0 3.457,0.333 4.316,0.685 l 0.86,-14.334 c -0.509,-0.263 -2.07,-0.703 -4.667,-0.703 z"
           id="path225"
           style="fill:#5185c0" /><path
           d="m 227.438,104.652 -0.172,11.663 c -1.037,0.259 -3.285,0.691 -6.74,0.691 -4.923,0 -8.379,-1.988 -10.625,-5.531 -2.764,3.369 -7.258,5.702 -13.736,5.702 -11.058,0 -18.66,-7.601 -18.66,-21.251 0,-13.822 8.812,-22.116 21.079,-22.116 4.406,0 7.862,1.036 10.54,2.418 l 0.518,-1.555 12.959,0 0,29.459 c 1.38,0.347 2.589,0.52 4.837,0.52 z m -20.388,-7.343 0,-8.121 c -1.643,-1.383 -3.888,-2.594 -6.912,-2.594 -4.838,0 -7.774,2.939 -7.774,9.332 0,5.875 3.109,8.466 7.257,8.466 4.319,0 7.429,-2.246 7.429,-7.083 z"
           id="path227"
           style="fill:#5185c0" /></g></g></g></svg>